<?xml version="1.0" standalone="no"?>
<!DOCTYPE svg PUBLIC "-//W3C//DTD SVG 20010904//EN"
 "http://www.w3.org/TR/2001/REC-SVG-20010904/DTD/svg10.dtd">
<svg version="1.0" xmlns="http://www.w3.org/2000/svg"
 width="880.000000pt" height="519.000000pt" viewBox="0 0 880.000000 519.000000"
 preserveAspectRatio="xMidYMid meet">

<g transform="translate(0.000000,519.000000) scale(0.100000,-0.100000)"
fill="#000000" stroke="none">
<path d="M2290 4219 c19 -12 52 -24 72 -27 21 -2 38 -9 38 -14 0 -6 16 -32 35
-58 19 -26 35 -52 35 -58 0 -5 6 -12 14 -15 8 -3 16 -16 18 -29 3 -22 7 -23
73 -22 79 2 375 45 375 55 0 27 -572 189 -668 189 -27 0 -27 0 8 -21z"/>
<path d="M3105 3931 c-47 -28 -57 -45 -49 -85 7 -38 20 -51 112 -105 57 -33
85 -39 222 -45 93 -3 170 -33 212 -81 12 -14 29 -25 39 -25 21 0 135 -67 171
-100 14 -14 61 -43 104 -65 43 -22 87 -48 98 -58 29 -26 170 -107 185 -107 15
0 111 -60 111 -70 0 -9 75 -50 91 -50 18 0 166 -87 208 -122 18 -16 40 -28 49
-28 9 0 39 -11 66 -25 27 -14 55 -25 62 -25 6 0 14 -6 17 -14 6 -15 94 -31
138 -24 24 3 14 10 -321 206 -116 68 -295 176 -585 354 -121 74 -285 172 -365
218 -222 126 -307 182 -321 208 -19 34 -54 48 -139 55 -63 5 -81 3 -105 -12z"/>
<path d="M4736 3702 c5 -5 68 -46 140 -90 72 -45 194 -126 270 -180 158 -110
191 -132 199 -132 7 0 -32 58 -50 75 -37 35 -137 116 -176 143 -106 72 -436
230 -383 184z"/>
<path d="M5693 3053 c-17 -6 -16 -23 0 -37 32 -27 326 -245 367 -273 62 -42
110 -65 110 -54 0 19 -123 150 -155 165 -19 9 -71 44 -116 79 -45 34 -97 72
-115 84 -18 12 -35 27 -39 33 -6 10 -31 12 -52 3z"/>
<path d="M5361 2687 c-7 -16 -5 -25 7 -34 10 -7 22 -16 27 -20 16 -14 99 -43
121 -43 11 0 38 -9 59 -21 59 -30 164 -62 218 -65 26 -1 69 -13 95 -26 40 -19
47 -28 50 -55 2 -24 -1 -33 -12 -33 -33 0 -51 -164 -20 -194 8 -9 19 -16 22
-16 20 0 168 123 183 152 6 12 6 25 -1 38 -7 13 -7 20 -1 20 13 0 2 62 -13 72
-6 4 -54 17 -106 29 -95 22 -316 95 -445 149 -38 15 -94 38 -123 49 l-53 21
-8 -23z"/>
</g>
</svg>
