<?xml version="1.0" standalone="no"?>
<!DOCTYPE svg PUBLIC "-//W3C//DTD SVG 20010904//EN"
 "http://www.w3.org/TR/2001/REC-SVG-20010904/DTD/svg10.dtd">
<svg version="1.0" xmlns="http://www.w3.org/2000/svg"
 width="840.000000pt" height="859.000000pt" viewBox="0 0 840.000000 859.000000"
 preserveAspectRatio="xMidYMid meet">

<g transform="translate(0.000000,859.000000) scale(0.100000,-0.100000)"
fill="#000000" stroke="none">
<path d="M4993 5315 c-13 -5 -23 -15 -23 -22 0 -7 -7 -13 -15 -13 -7 0 -18 -7
-23 -16 -6 -11 -17 -15 -29 -12 -12 3 -20 0 -20 -8 0 -17 50 -19 78 -3 11 6
18 17 15 24 -6 18 11 31 52 40 17 3 32 10 32 15 0 10 -39 8 -67 -5z"/>
<path d="M5343 5302 c-18 -9 -33 -22 -33 -28 0 -24 -115 -34 -123 -11 -3 7
-15 -1 -34 -22 -27 -30 -34 -33 -70 -29 -32 5 -43 1 -62 -18 -19 -20 -20 -24
-6 -24 10 0 14 -5 11 -12 -3 -7 -9 -21 -12 -31 -4 -10 -13 -16 -20 -13 -7 3
-16 1 -19 -4 -4 -6 1 -10 9 -10 9 0 16 -4 16 -10 0 -17 -35 -11 -52 9 -12 14
-13 22 -5 32 7 6 1 5 -13 -4 -29 -20 -71 -22 -88 -5 -9 9 -12 9 -12 0 0 -7 -7
-12 -15 -12 -8 0 -15 -4 -15 -10 0 -5 -11 -10 -25 -10 -14 0 -24 -5 -23 -11 2
-6 -10 -16 -27 -22 -16 -5 -37 -16 -46 -23 -8 -8 -28 -14 -42 -14 -15 0 -27
-5 -27 -11 0 -7 10 -9 27 -4 38 9 15 -17 -32 -35 -19 -7 -35 -17 -35 -22 0 -4
-9 -8 -20 -8 -15 0 -20 -7 -20 -25 0 -27 -7 -30 -30 -15 -10 6 -11 10 -2 10 6
0 12 7 12 15 0 9 -9 15 -25 15 -18 0 -23 -4 -19 -15 4 -9 0 -15 -10 -15 -9 0
-16 -4 -16 -10 0 -5 -4 -10 -10 -10 -5 0 -10 6 -10 14 0 9 -8 12 -26 8 -20 -4
-25 -1 -22 9 3 8 11 14 19 14 8 0 17 8 21 18 4 9 15 17 23 17 9 0 14 4 11 8
-5 9 9 36 21 38 25 5 53 17 53 25 0 15 -18 19 -29 5 -9 -11 -18 -12 -41 -3
-29 11 -41 27 -20 27 6 0 2 8 -7 18 -17 16 -19 16 -35 0 -10 -10 -18 -29 -18
-43 0 -20 -5 -25 -27 -26 -16 0 -22 -3 -16 -6 15 -5 -1 -25 -27 -36 -12 -4
-11 -6 3 -6 21 -1 23 -21 1 -21 -10 0 -13 -6 -9 -19 7 -22 -18 -45 -43 -39
-14 4 -18 0 -18 -16 1 -18 -4 -21 -32 -18 -33 3 -75 -22 -49 -31 9 -3 9 -8 -2
-21 -8 -9 -12 -18 -10 -20 2 -2 63 -7 134 -10 161 -8 169 -9 176 -19 3 -4 23
-10 44 -12 22 -3 42 -10 46 -16 4 -8 8 -7 12 2 4 12 7 11 16 -1 6 -8 16 -15
23 -16 19 -1 85 -27 123 -47 11 -6 36 -19 55 -29 55 -29 72 -41 107 -75 18
-18 39 -33 47 -33 8 0 17 -13 21 -29 4 -20 14 -31 31 -35 25 -7 31 -20 14 -31
-5 -3 -10 -11 -10 -17 0 -7 6 -6 15 2 16 13 20 2 16 -50 -1 -24 -1 -24 14 -6
15 20 15 20 16 0 1 -10 1 -22 0 -26 0 -5 4 -8 9 -8 6 0 10 5 10 11 0 16 31 38
53 39 18 0 25 20 6 20 -5 0 -7 5 -4 10 7 12 65 14 65 2 0 -4 -5 -13 -12 -20
-6 -6 -13 -20 -14 -29 -9 -65 -27 -161 -34 -178 -17 -41 -20 -56 -10 -50 6 3
10 -5 10 -19 0 -14 5 -26 10 -26 17 0 11 -18 -7 -23 -15 -4 -15 -5 2 -6 17 -1
18 -3 5 -11 -12 -8 -13 -11 -1 -19 10 -6 10 -10 2 -16 -9 -5 -8 -13 4 -31 14
-22 14 -24 -2 -24 -17 -1 -17 -1 0 -14 17 -13 24 -46 9 -46 -5 0 -9 -6 -9 -12
0 -7 -4 -21 -8 -30 -5 -12 -2 -20 9 -24 14 -5 14 -9 4 -22 -10 -12 -10 -16 0
-19 16 -6 15 -29 -3 -57 -14 -21 -14 -25 0 -39 8 -9 15 -21 15 -27 0 -8 8 -10
23 -5 12 4 44 10 70 14 27 4 52 13 56 19 6 11 66 29 126 38 74 12 77 14 73 39
-4 18 1 26 21 35 l26 12 -33 13 c-17 8 -32 20 -32 27 0 9 -3 9 -11 1 -6 -6
-18 -9 -25 -6 -21 8 -17 33 5 33 11 0 22 4 26 10 3 5 13 6 23 3 15 -6 15 -5 3
10 -12 15 -11 17 5 17 16 0 17 2 4 10 -13 8 -13 11 -1 19 8 5 11 16 8 25 -4
11 -1 16 11 16 11 0 13 3 5 8 -18 12 -3 57 25 75 l27 16 -27 1 c-30 0 -40 20
-10 20 9 0 24 4 32 10 9 6 -4 8 -40 6 -30 -2 -56 -8 -58 -14 -4 -12 -62 -17
-62 -7 0 10 34 60 52 76 10 9 18 22 18 28 0 7 7 11 16 9 26 -5 28 19 2 26 -22
6 -21 7 12 26 38 21 29 25 -38 21 -27 -2 -33 1 -30 15 4 22 22 31 90 44 44 9
56 15 51 26 -3 9 -13 14 -24 11 -12 -3 -19 0 -19 9 0 8 -8 14 -17 14 -14 0
-15 -2 -5 -9 10 -6 10 -10 -2 -20 -16 -14 -31 1 -21 22 4 6 -2 3 -12 -9 -23
-25 -73 -40 -73 -22 0 26 17 40 41 34 13 -3 18 -3 12 0 -7 3 -13 15 -13 26 0
11 -8 22 -20 25 -11 3 -20 9 -20 14 0 5 9 17 20 26 24 21 26 33 5 33 -23 0
-18 17 8 24 14 3 26 0 33 -9 16 -21 41 -19 54 5 9 16 8 20 -6 20 -10 0 -14 5
-10 15 7 19 -1 19 -20 0 -12 -12 -19 -12 -34 -2 -25 15 -25 27 -1 27 26 0 51
10 51 21 0 5 -6 9 -14 9 -8 0 -18 5 -21 10 -4 7 14 9 53 6 42 -3 66 0 79 9 20
16 63 20 63 6 0 -5 -9 -11 -20 -13 -15 -2 -17 -6 -9 -18 8 -11 12 -12 16 -2 2
6 15 12 29 12 21 0 23 -3 18 -32 l-6 -33 20 35 c16 28 17 36 6 38 -41 10 9 35
68 35 16 0 28 4 28 9 0 4 -7 8 -16 8 -24 0 -11 25 15 28 18 3 22 8 17 27 -4
14 -1 25 7 28 6 3 -2 6 -20 6 -23 1 -31 -3 -27 -12 3 -9 -10 -18 -38 -26 -24
-7 -54 -18 -68 -24 -20 -8 -22 -11 -7 -14 28 -7 19 -23 -13 -23 -20 0 -30 5
-30 15 0 18 -32 20 -61 4 -27 -14 -56 -4 -41 14 8 9 4 16 -19 26 -33 14 -34
18 -15 44 9 12 29 18 60 20 25 1 46 7 46 12 0 6 -20 9 -44 8 -31 -1 -46 3 -50
13 -3 8 -1 14 4 14 6 0 10 7 10 16 0 8 -4 12 -10 9 -5 -3 -10 -1 -10 5 0 7 9
14 20 17 11 3 17 9 14 15 -6 9 36 47 65 60 12 5 10 7 -6 7 -45 2 -22 19 35 27
31 4 49 9 39 12 -11 2 -16 9 -13 18 3 8 -1 14 -8 14 -8 0 -16 -4 -18 -9 -1 -5
-15 -13 -30 -16 -24 -6 -28 -4 -28 14 0 12 7 24 16 28 13 5 13 7 2 14 -11 7
-11 11 0 17 7 5 15 25 17 45 3 33 1 36 -32 42 -27 5 -33 10 -28 25 5 17 1 18
-50 13 -51 -5 -55 -4 -55 15 0 18 -4 20 -35 15 -31 -5 -35 -3 -35 16 0 25 -4
25 -47 3z m-218 -122 c3 -6 -1 -13 -10 -16 -19 -8 -30 0 -20 15 8 14 22 14 30
1z m-75 -50 c0 -5 -4 -10 -10 -10 -5 0 -10 5 -10 10 0 6 5 10 10 10 6 0 10 -4
10 -10z m69 -21 c-16 -10 -23 -4 -14 10 3 6 11 8 17 5 6 -4 5 -9 -3 -15z
m-172 -25 c6 -17 -13 -42 -24 -30 -4 4 -1 11 6 15 9 6 4 9 -14 9 -16 0 -22 -4
-15 -8 9 -6 9 -13 1 -29 -8 -14 -8 -21 -1 -21 5 0 10 -8 10 -17 0 -15 2 -15 9
-4 8 13 14 13 38 2 18 -9 23 -15 14 -19 -7 -2 -16 0 -20 6 -4 7 -12 7 -20 2
-14 -8 -23 -7 -58 7 -24 9 -31 10 -48 12 -11 1 -14 10 -11 36 6 51 12 55 72
55 40 0 56 -4 61 -16z m71 -29 c-13 -11 -22 -27 -20 -34 4 -11 -3 -12 -29 -7
-47 9 -65 30 -21 24 28 -4 35 -1 48 23 10 20 19 26 31 22 14 -5 13 -9 -9 -28z
m222 6 c0 -5 -7 -11 -15 -15 -15 -5 -20 5 -8 17 9 10 23 9 23 -2z m-442 -38
c2 -7 -3 -13 -12 -13 -9 0 -16 -4 -16 -10 0 -5 -4 -10 -9 -10 -5 0 -8 11 -8
26 0 20 4 24 20 22 11 -2 22 -9 25 -15z m-58 -23 c0 -5 -7 -10 -15 -10 -8 0
-15 5 -15 10 0 6 7 10 15 10 8 0 15 -4 15 -10z m100 -10 c0 -5 -4 -10 -10 -10
-5 0 -10 5 -10 10 0 6 5 10 10 10 6 0 10 -4 10 -10z m-230 -60 c0 -5 -7 -10
-16 -10 -8 0 -12 5 -9 10 3 6 10 10 16 10 5 0 9 -4 9 -10z m1030 -210 c0 -5
-7 -10 -16 -10 -8 0 -12 5 -9 10 3 6 10 10 16 10 5 0 9 -4 9 -10z m-566 -171
c25 -12 25 -13 -12 -54 -7 -8 -26 -15 -42 -15 -22 0 -29 6 -34 26 -8 31 -1 41
34 47 14 2 26 5 27 6 1 0 13 -4 27 -10z m264 -61 c-5 -15 -48 -24 -48 -10 0
14 12 22 33 22 10 0 17 -5 15 -12z m-160 -25 c2 -9 -7 -13 -27 -13 -34 0 -50
16 -24 23 27 7 46 3 51 -10z m260 -15 c-2 -6 -10 -14 -16 -16 -7 -2 -10 2 -6
12 7 18 28 22 22 4z m2 -128 c0 -5 -4 -10 -10 -10 -5 0 -10 5 -10 10 0 6 5 10
10 10 6 0 10 -4 10 -10z m50 -306 c0 -17 -22 -14 -28 4 -2 7 3 12 12 12 9 0
16 -7 16 -16z m0 -34 c0 -5 -7 -10 -15 -10 -8 0 -15 5 -15 10 0 6 7 10 15 10
8 0 15 -4 15 -10z m-65 -30 c-3 -5 -13 -10 -21 -10 -8 0 -14 5 -14 10 0 6 9
10 21 10 11 0 17 -4 14 -10z m-18 -26 c-3 -3 -12 -4 -19 -1 -8 3 -5 6 6 6 11
1 17 -2 13 -5z m3 -44 c0 -5 -4 -10 -10 -10 -5 0 -10 5 -10 10 0 6 5 10 10 10
6 0 10 -4 10 -10z m46 -45 c21 -20 17 -25 -16 -25 -18 0 -33 6 -36 15 -4 8
-12 15 -20 15 -8 0 -14 5 -14 11 0 15 68 2 86 -16z m-96 5 c0 -5 7 -10 15 -10
8 0 15 -4 15 -9 0 -5 -13 -4 -29 2 -17 6 -28 15 -25 19 7 11 24 10 24 -2z
m-150 -60 c0 -5 -7 -10 -15 -10 -8 0 -15 5 -15 10 0 6 7 10 15 10 8 0 15 -4
15 -10z m0 -30 c0 -5 -7 -10 -15 -10 -8 0 -15 5 -15 10 0 6 7 10 15 10 8 0 15
-4 15 -10z"/>
<path d="M5058 5289 c-23 -25 -23 -27 5 -22 14 3 23 12 23 24 0 23 -6 23 -28
-2z"/>
<path d="M5580 5270 c0 -13 11 -13 30 0 12 8 11 10 -7 10 -13 0 -23 -4 -23
-10z"/>
<path d="M5775 5220 c-3 -5 -1 -10 4 -10 6 0 11 5 11 10 0 6 -2 10 -4 10 -3 0
-8 -4 -11 -10z"/>
<path d="M4418 5213 c7 -3 16 -2 19 1 4 3 -2 6 -13 5 -11 0 -14 -3 -6 -6z"/>
<path d="M4833 5175 c-15 -11 -22 -12 -25 -3 -3 7 -9 8 -18 3 -11 -7 -10 -10
5 -15 19 -7 65 9 65 23 0 10 -2 9 -27 -8z"/>
<path d="M4630 5120 c0 -19 3 -21 12 -12 9 9 9 15 0 24 -9 9 -12 7 -12 -12z"/>
<path d="M4683 5113 c-7 -2 -13 -8 -13 -13 0 -10 38 -1 46 11 6 10 -13 11 -33
2z"/>
<path d="M4070 4980 c0 -5 4 -10 9 -10 6 0 13 5 16 10 3 6 -1 10 -9 10 -9 0
-16 -4 -16 -10z"/>
<path d="M4240 4961 c0 -5 -8 -12 -17 -14 -14 -4 -12 -5 5 -6 13 -1 22 5 22
14 0 8 -2 15 -5 15 -3 0 -5 -4 -5 -9z"/>
<path d="M6010 4900 c-10 -19 -9 -20 17 -14 15 4 35 13 43 20 12 12 10 14 -18
14 -21 0 -35 -6 -42 -20z"/>
<path d="M4068 4903 c6 -2 18 -2 25 0 6 3 1 5 -13 5 -14 0 -19 -2 -12 -5z"/>
<path d="M6091 4874 c0 -11 3 -14 6 -6 3 7 2 16 -1 19 -3 4 -6 -2 -5 -13z"/>
<path d="M5900 4845 c0 -9 6 -12 15 -9 8 4 12 10 9 15 -8 14 -24 10 -24 -6z"/>
<path d="M4060 4840 c-9 -6 -10 -10 -3 -10 6 0 15 5 18 10 8 12 4 12 -15 0z"/>
<path d="M5650 4840 c-18 -12 -2 -12 25 0 13 6 15 9 5 9 -8 0 -22 -4 -30 -9z"/>
<path d="M5968 4843 c-10 -2 -18 -8 -18 -13 0 -10 38 -1 46 11 5 9 1 10 -28 2z"/>
<path d="M3855 4809 c-30 -5 -33 -7 -12 -8 15 0 27 -6 27 -13 0 -8 6 -6 17 5
22 21 17 24 -32 16z"/>
<path d="M7873 4740 c-30 -12 -29 -20 3 -20 14 0 23 4 20 9 -4 5 0 12 6 14 7
3 9 5 3 6 -5 0 -20 -4 -32 -9z"/>
<path d="M6015 4690 c-19 -7 -19 -8 -2 -15 19 -8 31 -2 26 13 -2 5 -13 6 -24
2z"/>
<path d="M6175 4680 c-16 -17 -16 -20 -3 -15 9 4 19 13 22 21 7 19 2 18 -19
-6z"/>
<path d="M5568 4633 c6 -2 18 -2 25 0 6 3 1 5 -13 5 -14 0 -19 -2 -12 -5z"/>
<path d="M5760 4561 c0 -5 -11 -12 -25 -15 -14 -4 -25 -11 -25 -16 0 -6 -10
-10 -22 -10 -12 0 -18 -3 -14 -7 9 -9 13 -10 66 -12 48 -1 52 -17 8 -30 -26
-8 -20 -9 30 -4 46 4 62 2 62 -7 0 -8 -9 -11 -25 -8 -14 3 -28 1 -31 -3 -3 -5
-14 -9 -24 -9 -10 0 -22 -5 -26 -11 -5 -9 3 -10 30 -5 43 8 49 -7 9 -23 -27
-11 -27 -11 7 -6 18 3 36 9 40 14 3 5 14 10 25 13 12 2 19 10 17 21 -2 13 4
17 28 17 18 0 30 5 30 13 0 8 10 18 21 23 19 9 17 10 -15 11 -20 1 -36 -3 -36
-7 0 -4 -9 -10 -20 -13 -13 -3 -20 0 -20 10 0 8 9 17 20 20 12 3 20 14 20 27
0 18 -6 23 -30 23 -16 0 -27 -4 -24 -9 3 -5 0 -15 -6 -24 -14 -16 -40 -2 -40
22 0 8 -7 14 -15 14 -8 0 -15 -4 -15 -9z"/>
<path d="M5584 4526 c23 -18 36 -20 36 -6 0 6 -4 10 -9 10 -5 0 -18 3 -28 6
-16 5 -16 4 1 -10z"/>
<path d="M5986 4531 c-4 -5 3 -7 14 -4 23 6 26 13 6 13 -8 0 -17 -4 -20 -9z"/>
<path d="M5490 4506 c-14 -38 -13 -39 11 -15 15 15 18 24 10 32 -7 7 -13 2
-21 -17z"/>
<path d="M5679 4461 c8 -5 10 -14 6 -22 -6 -9 -3 -11 9 -6 10 4 20 7 23 7 3 0
0 7 -7 15 -7 8 -20 15 -29 15 -13 0 -13 -2 -2 -9z"/>
<path d="M8078 4403 c7 -3 16 -2 19 1 4 3 -2 6 -13 5 -11 0 -14 -3 -6 -6z"/>
<path d="M5656 4371 c-4 -5 3 -7 14 -4 23 6 26 13 6 13 -8 0 -17 -4 -20 -9z"/>
<path d="M7838 4363 c7 -3 16 -2 19 1 4 3 -2 6 -13 5 -11 0 -14 -3 -6 -6z"/>
<path d="M5538 4333 c7 -3 16 -2 19 1 4 3 -2 6 -13 5 -11 0 -14 -3 -6 -6z"/>
<path d="M5066 4311 c-4 -7 -5 -15 -2 -18 9 -9 19 4 14 18 -4 11 -6 11 -12 0z"/>
<path d="M5621 4293 c-1 -7 -10 -13 -20 -13 -26 0 -51 -10 -51 -21 0 -5 8 -9
18 -9 10 0 24 -6 31 -12 10 -11 14 -10 22 5 7 11 22 17 44 17 24 0 35 5 35 14
0 8 6 17 13 19 7 3 5 6 -5 6 -10 1 -18 -3 -18 -9 0 -15 -57 -12 -63 3 -4 10
-6 10 -6 0z"/>
<path d="M7548 4293 c7 -3 16 -2 19 1 4 3 -2 6 -13 5 -11 0 -14 -3 -6 -6z"/>
<path d="M7605 4290 c-3 -6 1 -7 9 -4 18 7 21 14 7 14 -6 0 -13 -4 -16 -10z"/>
<path d="M8132 4285 c-7 -8 -21 -15 -32 -15 -10 0 -22 -5 -26 -12 -5 -8 -2 -9
10 -5 10 4 30 7 45 7 20 0 27 5 27 20 0 24 -6 25 -24 5z"/>
<path d="M3141 4253 c-6 -10 -11 -13 -11 -8 0 13 -40 15 -40 2 0 -5 -10 -5
-22 -2 -17 6 -20 4 -14 -10 5 -15 4 -16 -8 -6 -16 13 -66 5 -66 -11 0 -6 -11
-8 -24 -6 -19 4 -22 1 -18 -14 3 -12 -1 -18 -14 -19 -12 0 -14 -3 -6 -6 10 -4
10 -8 0 -21 -10 -12 -10 -14 0 -8 8 5 12 -2 12 -23 0 -17 4 -31 9 -31 5 0 11
-7 14 -14 4 -10 1 -13 -9 -9 -8 3 -18 18 -21 34 -9 48 -23 33 -23 -25 0 -44 4
-56 23 -69 21 -15 21 -16 2 -16 -18 -1 -17 -4 9 -26 30 -26 28 -32 -5 -15 -15
8 -19 7 -19 -3 0 -8 9 -17 20 -20 31 -8 36 -35 10 -57 -15 -13 -18 -20 -9 -20
11 0 11 -2 -1 -10 -12 -8 -10 -10 10 -10 43 0 69 -11 76 -32 3 -11 1 -25 -4
-30 -6 -6 -8 -17 -5 -24 4 -10 -3 -14 -21 -14 -23 0 -25 -3 -20 -29 5 -23 2
-30 -12 -34 -15 -4 -14 -5 4 -6 15 -1 21 -5 16 -12 -5 -9 1 -10 20 -5 22 5 26
3 26 -16 0 -21 -35 -55 -52 -50 -17 4 11 -54 30 -63 12 -5 22 -14 22 -19 0 -4
6 -4 13 1 6 6 30 14 51 17 30 6 36 10 25 17 -12 8 -11 11 4 20 9 5 17 18 17
27 0 14 -2 15 -10 2 -5 -8 -12 -11 -17 -7 -4 5 -2 12 5 16 18 11 83 -11 77
-26 -2 -7 0 -13 5 -13 6 0 10 13 10 29 0 21 6 30 22 34 31 8 34 1 12 -24 -19
-22 -19 -22 4 -10 12 6 22 18 22 26 0 18 21 20 38 3 9 -9 12 -9 12 1 0 9 16
11 63 7 34 -2 74 -5 90 -5 15 -1 27 -7 27 -14 0 -7 9 -13 21 -13 17 0 20 5 15
28 -3 15 -2 28 2 28 14 0 32 -24 32 -42 0 -42 76 -39 87 3 4 13 14 19 34 19
16 0 29 5 29 11 0 6 8 9 18 7 9 -2 17 -12 17 -23 0 -14 8 -21 28 -23 15 -2 27
-8 27 -13 0 -5 7 -9 16 -9 10 0 14 -6 10 -15 -3 -9 0 -15 7 -15 19 0 53 27 45
35 -10 10 11 47 23 40 5 -4 9 0 9 8 0 8 7 20 15 27 8 7 15 21 15 31 0 11 5 19
10 19 6 0 10 5 10 11 0 8 -4 8 -13 0 -10 -8 -17 -7 -25 1 -9 9 -12 9 -12 1 0
-6 6 -14 13 -16 10 -4 10 -6 0 -6 -7 -1 -16 -2 -20 -3 -3 -2 -7 7 -8 19 -1 12
2 20 7 17 4 -3 8 -1 8 5 0 6 14 9 30 7 32 -4 35 0 20 24 -9 13 -11 13 -20 0
-15 -23 -12 4 4 35 14 28 15 37 1 69 -5 12 -3 21 6 27 12 7 12 9 0 9 -8 0 -11
7 -8 20 4 15 0 20 -16 20 -18 0 -20 -2 -7 -11 12 -8 12 -10 1 -7 -8 2 -15 14
-16 27 -1 18 2 21 21 17 18 -5 21 -3 17 14 -3 11 -9 20 -13 20 -13 0 -40 -30
-40 -45 0 -7 -7 -16 -16 -19 -19 -7 -54 -8 -54 -1 0 11 41 45 53 45 19 0 37
21 37 43 0 24 -26 50 -41 41 -8 -5 -9 -3 -4 6 10 16 -14 31 -40 24 -18 -4 -18
-4 -2 6 9 6 17 20 17 31 0 11 -5 17 -10 14 -6 -4 -8 -11 -5 -16 11 -17 -12 -9
-30 11 -10 11 -13 20 -7 20 6 0 13 -6 15 -12 3 -8 6 -5 6 6 1 14 -4 17 -24 14
-14 -3 -30 1 -36 8 -6 8 -8 14 -3 14 5 0 1 5 -9 11 -9 5 -22 7 -27 4 -6 -3
-10 0 -10 7 -1 8 -6 6 -15 -6 -15 -20 -15 -20 -15 0 0 17 -6 20 -36 19 -19 0
-38 3 -40 7 -9 14 -34 8 -34 -8 0 -23 -20 -6 -21 19 -1 18 -2 19 -6 4 -5 -18
-5 -18 -18 0 -7 10 -17 15 -21 11 -4 -4 -1 -15 7 -24 13 -16 12 -16 -8 -5 -13
6 -23 17 -23 23 0 9 -3 9 -11 1 -9 -9 -15 -8 -26 3 -8 8 -22 14 -31 14 -14 0
-15 -2 -2 -10 8 -5 11 -12 7 -16 -4 -4 -15 0 -24 8 -13 11 -41 16 -93 16 -43
1 -69 -2 -62 -7 11 -6 7 -13 -14 -30 -27 -21 -29 -21 -41 -5 -18 25 -16 32 10
37 19 4 19 4 -5 6 -16 0 -31 -6 -37 -16z m199 -3 c0 -5 -4 -10 -10 -10 -5 0
-10 5 -10 10 0 6 5 10 10 10 6 0 10 -4 10 -10z m-330 -130 c0 -5 -7 -10 -15
-10 -8 0 -15 5 -15 10 0 6 7 10 15 10 8 0 15 -4 15 -10z m50 0 c0 -5 -4 -10
-10 -10 -5 0 -10 5 -10 10 0 6 5 10 10 10 6 0 10 -4 10 -10z m-100 -10 c0 -5
-5 -10 -11 -10 -5 0 -7 5 -4 10 3 6 8 10 11 10 2 0 4 -4 4 -10z m670 -6 c0 -2
-7 -4 -15 -4 -8 0 -15 4 -15 10 0 5 7 7 15 4 8 -4 15 -8 15 -10z m-170 -14 c0
-5 -4 -10 -10 -10 -5 0 -10 5 -10 10 0 6 5 10 10 10 6 0 10 -4 10 -10z m-335
-30 c3 -5 -1 -10 -9 -10 -9 0 -16 5 -16 10 0 6 4 10 9 10 6 0 13 -4 16 -10z
m-181 -6 c27 -10 19 -32 -9 -26 -14 2 -25 11 -25 18 0 15 10 17 34 8z m306 -4
c0 -5 -4 -10 -10 -10 -5 0 -10 5 -10 10 0 6 5 10 10 10 6 0 10 -4 10 -10z m40
0 c0 -5 -7 -10 -15 -10 -8 0 -15 5 -15 10 0 6 7 10 15 10 8 0 15 -4 15 -10z
m396 -14 c7 -8 19 -16 26 -18 10 -4 8 -9 -4 -21 -21 -21 -38 -22 -38 -2 0 8
-9 15 -20 15 -23 0 -25 5 -7 25 15 18 25 18 43 1z m-636 -42 c0 -20 -4 -25
-16 -20 -9 3 -18 6 -20 6 -2 0 -4 9 -4 20 0 13 7 20 20 20 15 0 20 -7 20 -26z
m30 16 c0 -5 -4 -10 -10 -10 -5 0 -10 5 -10 10 0 6 5 10 10 10 6 0 10 -4 10
-10z m710 -10 c0 -5 7 -10 15 -10 8 0 15 -4 15 -10 0 -15 -36 -12 -49 3 -6 8
-8 17 -4 20 10 10 23 8 23 -3z m-715 -30 c3 -5 1 -10 -4 -10 -6 0 -11 5 -11
10 0 6 2 10 4 10 3 0 8 -4 11 -10z m-55 -29 c0 -14 -29 -21 -36 -9 -4 7 -3 8
4 4 7 -4 12 -2 12 3 0 6 5 11 10 11 6 0 10 -4 10 -9z m68 -13 c-2 -17 -9 -22
-26 -21 -12 2 -22 -2 -22 -9 0 -6 -8 -17 -17 -24 -35 -26 -45 -11 -15 22 10
10 21 27 25 37 4 10 17 17 32 17 22 0 26 -4 23 -22z m532 13 c0 -15 -29 -33
-45 -27 -22 8 -6 36 21 36 13 0 24 -4 24 -9z m130 -1 c0 -5 -7 -10 -16 -10 -8
0 -12 5 -9 10 3 6 10 10 16 10 5 0 9 -4 9 -10z m-60 -30 c0 -5 -4 -10 -10 -10
-5 0 -10 5 -10 10 0 6 5 10 10 10 6 0 10 -4 10 -10z m-220 -8 c0 -15 -41 -53
-51 -47 -5 4 -9 17 -9 31 0 20 5 24 30 24 17 0 30 -4 30 -8z m187 -7 c3 -9 3
-19 -1 -22 -7 -7 -36 16 -36 28 0 15 30 10 37 -6z m191 -8 c-17 -18 -68 -30
-68 -17 0 5 15 14 33 19 45 13 50 13 35 -2z m92 9 c0 -9 -40 -13 -46 -5 -3 5
6 9 20 9 14 0 26 -2 26 -4z m-710 -36 c0 -11 -7 -20 -15 -20 -17 0 -18 2 -9
24 9 23 24 20 24 -4z m120 -5 c0 -15 -6 -25 -14 -25 -8 0 -16 -6 -19 -12 -3
-10 -7 -10 -20 1 -10 7 -17 18 -17 23 0 17 25 37 48 38 17 0 22 -6 22 -25z
m178 13 c-6 -16 -36 -34 -44 -26 -8 9 17 37 34 38 8 0 12 -5 10 -12z m63 -5
c1 -17 2 -17 6 0 5 18 18 23 28 8 5 -9 -20 -41 -31 -41 -18 0 -42 23 -38 35 8
21 34 19 35 -2z m-401 -13 c0 -5 -4 -10 -10 -10 -5 0 -10 5 -10 10 0 6 5 10
10 10 6 0 10 -4 10 -10z m560 6 c0 -3 -4 -8 -10 -11 -5 -3 -10 -1 -10 4 0 6 5
11 10 11 6 0 10 -2 10 -4z m183 -20 c3 -8 -4 -11 -24 -8 -17 3 -29 0 -29 -7 0
-6 -15 -11 -32 -11 -47 -1 -112 -17 -116 -29 -2 -6 -18 -11 -35 -11 -18 0 -45
-7 -61 -15 -32 -17 -66 -20 -66 -5 0 6 6 10 14 10 8 0 16 4 18 10 2 5 30 12
63 16 44 5 66 13 82 30 17 19 30 23 61 20 22 -2 50 2 62 9 26 14 56 9 63 -9z
m-233 4 c0 -5 -13 -10 -30 -10 -16 0 -30 5 -30 10 0 6 14 10 30 10 17 0 30 -4
30 -10z m-544 -15 c2 -5 -13 -17 -32 -27 -30 -14 -36 -14 -41 -2 -3 8 3 21 13
29 21 16 56 16 60 0z m-92 -10 c-4 -8 -12 -15 -20 -15 -8 0 -11 6 -8 15 4 8
12 15 20 15 8 0 11 -6 8 -15z m156 -17 c0 -22 -26 -58 -43 -58 -13 0 0 62 16
72 20 13 27 9 27 -14z m340 12 c0 -5 -4 -10 -10 -10 -5 0 -10 5 -10 10 0 6 5
10 10 10 6 0 10 -4 10 -10z m-270 -20 c0 -11 -7 -20 -15 -20 -17 0 -18 2 -9
24 9 23 24 20 24 -4z m90 5 c16 -20 10 -26 -18 -18 -12 3 -22 12 -22 19 0 19
24 18 40 -1z m150 -15 c0 -5 -4 -10 -10 -10 -5 0 -10 5 -10 10 0 6 5 10 10 10
6 0 10 -4 10 -10z m-280 -10 c0 -5 -4 -10 -10 -10 -5 0 -10 5 -10 10 0 6 5 10
10 10 6 0 10 -4 10 -10z m160 -20 c0 -4 9 -10 20 -13 11 -3 20 -10 20 -16 0
-6 -9 -11 -20 -11 -11 0 -20 7 -20 15 0 8 -9 15 -19 15 -10 0 -21 6 -24 13 -4
10 2 13 19 9 13 -2 24 -8 24 -12z m-310 3 c0 -5 -7 -16 -15 -27 -16 -21 -30
-16 -38 14 -4 17 0 20 24 20 16 0 29 -3 29 -7z m60 -3 c0 -5 -7 -10 -15 -10
-8 0 -15 5 -15 10 0 6 7 10 15 10 8 0 15 -4 15 -10z m172 -2 c-9 -9 -15 -9
-24 0 -9 9 -7 12 12 12 19 0 21 -3 12 -12z m-42 -8 c0 -5 -4 -10 -10 -10 -5 0
-10 5 -10 10 0 6 5 10 10 10 6 0 10 -4 10 -10z m230 0 c0 -5 -11 -10 -25 -10
-14 0 -25 5 -25 10 0 6 11 10 25 10 14 0 25 -4 25 -10z m-507 -56 c-3 -8 -9
-14 -13 -14 -14 0 -22 20 -16 37 5 12 9 13 21 3 7 -6 11 -18 8 -26z m127 22
c0 -20 -19 -31 -32 -18 -6 6 -7 15 -4 21 10 16 36 13 36 -3z m230 5 c0 -17
-26 -29 -95 -41 -38 -6 -83 -18 -100 -25 -45 -20 -115 -23 -115 -5 0 18 42 32
122 40 44 4 83 12 87 18 11 18 101 30 101 13z m543 -60 c-9 -12 -21 -21 -25
-21 -4 0 2 11 14 25 12 14 23 23 25 21 3 -2 -4 -14 -14 -25z m-213 -11 c0 -5
-4 -10 -10 -10 -5 0 -10 5 -10 10 0 6 5 10 10 10 6 0 10 -4 10 -10z m150 -34
c0 -8 -5 -18 -10 -21 -17 -11 -40 3 -34 20 8 19 44 20 44 1z m-800 -26 c0 -5
-9 -10 -20 -10 -11 0 -20 5 -20 10 0 6 9 10 20 10 11 0 20 -4 20 -10z m40 -25
c0 -8 -9 -19 -19 -25 -28 -15 -30 -13 -18 15 13 27 37 34 37 10z"/>
<path d="M6008 4243 c-10 -2 -18 -9 -18 -14 0 -11 39 -2 55 12 9 9 -6 10 -37
2z"/>
<path d="M7378 4233 c7 -3 16 -2 19 1 4 3 -2 6 -13 5 -11 0 -14 -3 -6 -6z"/>
<path d="M7418 4233 c7 -3 16 -2 19 1 4 3 -2 6 -13 5 -11 0 -14 -3 -6 -6z"/>
<path d="M5750 4200 c0 -13 11 -13 30 0 12 8 11 10 -7 10 -13 0 -23 -4 -23
-10z"/>
<path d="M5940 4200 c0 -5 4 -10 9 -10 6 0 13 5 16 10 3 6 -1 10 -9 10 -9 0
-16 -4 -16 -10z"/>
<path d="M2875 4150 c-3 -6 1 -7 9 -4 18 7 21 14 7 14 -6 0 -13 -4 -16 -10z"/>
<path d="M3856 4121 c-4 -7 -5 -15 -2 -18 9 -9 19 4 14 18 -4 11 -6 11 -12 0z"/>
<path d="M2868 4043 c7 -3 16 -2 19 1 4 3 -2 6 -13 5 -11 0 -14 -3 -6 -6z"/>
<path d="M5970 3926 c0 -9 -6 -16 -14 -16 -14 0 -28 -34 -18 -44 3 -3 21 -6
41 -5 33 0 34 1 12 10 -23 9 -24 10 -5 24 26 20 47 19 89 -5 37 -21 67 -18 58
6 -3 8 -18 14 -34 14 -16 0 -29 3 -29 8 0 4 -10 7 -22 8 -13 0 -35 4 -50 8
-22 7 -28 5 -28 -8z"/>
<path d="M6088 3933 c7 -3 16 -2 19 1 4 3 -2 6 -13 5 -11 0 -14 -3 -6 -6z"/>
<path d="M5540 3926 c0 -2 9 -6 20 -9 11 -3 20 -1 20 4 0 5 -9 9 -20 9 -11 0
-20 -2 -20 -4z"/>
<path d="M5564 3855 c-18 -14 -18 -14 4 -8 12 3 22 9 22 14 0 12 -3 11 -26 -6z"/>
<path d="M2970 3766 c0 -9 5 -16 10 -16 6 0 10 4 10 9 0 6 -4 13 -10 16 -5 3
-10 -1 -10 -9z"/>
<path d="M3284 3559 c-4 -7 -3 -9 3 -6 6 4 22 -2 34 -12 22 -17 22 -20 7 -25
-50 -17 -53 -20 -15 -24 38 -3 53 -22 16 -22 -11 0 -18 -4 -15 -9 4 -5 28 -3
58 4 50 14 83 10 58 -5 -7 -4 -9 -13 -5 -19 5 -9 11 -9 19 -1 7 5 25 11 40 12
14 1 26 8 26 15 0 7 18 13 47 15 25 2 48 8 50 15 3 7 -3 9 -16 6 -19 -5 -25 3
-23 27 0 3 -12 5 -26 4 -53 -4 -58 -5 -44 -11 6 -2 12 -9 12 -14 0 -13 -28
-11 -32 2 -3 9 -10 8 -24 -1 -27 -16 -63 -7 -97 24 -33 30 -63 41 -73 25z
m206 -79 c0 -5 -4 -10 -10 -10 -5 0 -10 5 -10 10 0 6 5 10 10 10 6 0 10 -4 10
-10z"/>
<path d="M3641 3551 c-7 -5 -10 -14 -7 -20 5 -8 11 -7 22 3 24 24 14 35 -15
17z"/>
<path d="M2955 3515 c7 -33 12 -41 20 -33 3 3 -2 18 -11 34 l-16 29 7 -30z"/>
<path d="M3095 3420 c-4 -6 7 -10 27 -9 27 0 30 2 13 9 -27 12 -33 12 -40 0z"/>
<path d="M3160 3400 c0 -5 5 -10 11 -10 5 0 7 5 4 10 -3 6 -8 10 -11 10 -2 0
-4 -4 -4 -10z"/>
<path d="M3155 3360 c-3 -5 1 -10 10 -10 9 0 13 5 10 10 -3 6 -8 10 -10 10 -2
0 -7 -4 -10 -10z"/>
</g>
</svg>
