<?xml version="1.0" standalone="no"?>
<!DOCTYPE svg PUBLIC "-//W3C//DTD SVG 20010904//EN"
 "http://www.w3.org/TR/2001/REC-SVG-20010904/DTD/svg10.dtd">
<svg version="1.0" xmlns="http://www.w3.org/2000/svg"
 width="210.000000pt" height="240.000000pt" viewBox="0 0 210.000000 240.000000"
 preserveAspectRatio="xMidYMid meet">

<g transform="translate(0.000000,240.000000) scale(0.100000,-0.100000)"
fill="#000000" stroke="none">
<path d="M385 2290 c-6 -9 5 -17 86 -63 89 -50 155 -149 180 -267 18 -84 6
-230 -26 -326 -14 -44 -60 -143 -101 -220 -142 -264 -196 -399 -193 -488 0
-20 6 -5 16 39 21 100 59 183 162 353 113 186 165 294 191 396 46 180 11 380
-85 494 -51 61 -208 117 -230 82z"/>
<path d="M236 2226 c-49 -19 -94 -60 -117 -111 -33 -72 -19 -146 37 -195 27
-24 27 -23 -3 12 -57 67 -56 153 3 218 47 51 108 74 178 67 68 -7 107 -27 162
-83 68 -70 89 -135 89 -276 0 -64 -3 -120 -8 -124 -4 -4 -18 2 -30 15 -45 42
-76 0 -85 -112 -4 -58 -7 -67 -21 -61 -69 30 -101 -15 -101 -146 -1 -63 -3
-80 -11 -67 -15 26 -48 20 -84 -16 -59 -59 -71 -172 -35 -345 24 -119 90 -319
125 -378 66 -113 194 -144 273 -66 16 15 19 20 7 11 -56 -45 -137 -53 -191
-20 -94 58 -147 220 -124 383 15 109 52 207 152 410 102 207 128 273 152 375
61 269 -62 504 -272 519 -35 3 -72 -1 -96 -10z"/>
<path d="M362 2100 c2 -5 30 -31 63 -58 46 -36 69 -65 98 -121 40 -79 48 -80
18 -1 -24 64 -83 143 -125 169 -36 22 -60 27 -54 11z"/>
<path d="M201 2034 c-35 -29 -42 -75 -16 -110 8 -12 11 -25 7 -29 -4 -3 -2 -6
3 -4 6 1 18 -1 27 -5 24 -11 85 11 103 37 30 42 18 100 -26 122 -40 21 -63 19
-98 -11z"/>
<path d="M766 1888 c-29 -186 -40 -239 -66 -306 -16 -43 -44 -100 -60 -127
-26 -43 -27 -46 -5 -20 72 85 155 310 155 421 0 60 -16 82 -24 32z"/>
<path d="M210 1840 c-20 -13 -11 -18 51 -30 66 -13 116 -50 147 -110 24 -49
30 -41 8 11 -23 55 -56 90 -110 115 -56 26 -73 29 -96 14z"/>
<path d="M134 1599 c-8 -14 14 -29 42 -29 30 0 84 -39 112 -80 20 -29 23 -31
17 -10 -12 43 -56 91 -99 111 -48 22 -62 23 -72 8z"/>
<path d="M771 1454 c-59 -16 -142 -58 -166 -84 -10 -11 7 -6 48 14 53 25 77
30 165 34 105 5 129 15 97 39 -24 17 -75 16 -144 -3z"/>
<path d="M748 1354 c52 -13 73 -25 112 -62 60 -58 76 -110 63 -195 -11 -67 -2
-81 21 -33 32 67 15 155 -41 217 -47 51 -96 76 -164 83 l-54 6 63 -16z"/>
<path d="M658 1353 c7 -3 16 -2 19 1 4 3 -2 6 -13 5 -11 0 -14 -3 -6 -6z"/>
<path d="M618 1311 c-151 -49 -270 -264 -267 -480 l2 -76 8 73 c17 142 85 290
168 363 130 115 311 68 311 -82 0 -37 -5 -50 -27 -71 -38 -35 -65 -41 -106
-24 -42 17 -58 42 -56 88 2 30 2 30 6 6 2 -15 16 -37 30 -48 53 -41 119 -15
129 52 5 30 2 41 -19 62 -39 39 -89 36 -133 -8 -106 -106 51 -263 172 -171 96
73 84 213 -24 289 -34 24 -54 31 -105 33 -34 1 -74 -2 -89 -6z"/>
<path d="M495 973 c-38 -19 -74 -52 -87 -78 -6 -11 6 -4 28 17 102 97 228 72
270 -54 17 -51 34 -56 34 -9 0 36 -36 89 -79 118 -41 28 -120 31 -166 6z"/>
<path d="M451 827 c-28 -14 -49 -43 -38 -53 3 -4 28 -1 54 7 80 22 130 7 164
-48 17 -27 20 -45 17 -86 l-5 -52 14 34 c28 68 -9 156 -81 190 -48 24 -90 26
-125 8z"/>
<path d="M170 789 c-17 -31 -8 -117 19 -171 33 -70 95 -134 159 -165 75 -37
175 -39 238 -6 80 43 136 134 133 220 0 18 -5 7 -13 -28 -21 -97 -74 -151
-167 -171 -64 -13 -114 -2 -174 38 -71 46 -95 87 -142 238 -20 66 -35 79 -53
45z"/>
<path d="M1600 754 c-49 -9 -144 -47 -192 -76 -64 -40 -61 -46 5 -9 72 41 149
61 228 61 142 0 245 -70 310 -208 35 -76 49 -89 49 -46 0 89 -85 201 -187 247
-57 26 -160 40 -213 31z"/>
<path d="M835 681 c-108 -49 -96 -195 20 -251 122 -59 259 -28 465 105 213
138 357 159 474 70 77 -58 102 -181 55 -266 -39 -71 -130 -117 -202 -104 -89
17 -147 82 -147 163 0 127 183 139 206 14 12 -66 44 -81 44 -21 0 69 -62 129
-133 129 -85 0 -132 -55 -125 -146 15 -182 274 -221 378 -57 120 188 -60 418
-292 375 -79 -15 -156 -52 -301 -145 -178 -115 -275 -144 -378 -114 -101 30
-151 113 -115 189 41 87 162 75 201 -19 16 -37 38 -40 43 -7 6 43 -71 104
-130 104 -13 0 -41 -9 -63 -19z"/>
<path d="M1116 674 c-3 -9 -6 -32 -6 -52 0 -75 -75 -170 -135 -173 -11 0 -14
-3 -8 -6 20 -7 80 16 114 44 33 28 63 81 73 130 11 48 -22 98 -38 57z"/>
<path d="M1232 658 c-7 -7 -12 -23 -12 -35 0 -29 -24 -79 -54 -112 l-21 -24
21 11 c30 16 77 72 93 110 20 47 2 79 -27 50z"/>
<path d="M726 498 c-14 -83 17 -189 70 -239 20 -18 29 -21 42 -13 30 19 25 45
-16 88 -50 52 -73 96 -82 161 l-6 50 -8 -47z"/>
<path d="M662 459 c-46 -53 -109 -81 -180 -81 -31 0 -70 5 -85 11 -36 14 -84
14 -92 1 -12 -19 6 -48 38 -61 76 -32 201 -7 275 56 31 26 88 104 80 109 -2 1
-18 -14 -36 -35z"/>
<path d="M1237 445 c-73 -52 -150 -77 -237 -77 -87 0 -139 18 -187 64 -18 18
-33 27 -33 21 0 -20 86 -90 133 -108 105 -40 247 -2 338 91 51 52 49 53 -14 9z"/>
</g>
</svg>
