<?xml version="1.0" standalone="no"?>
<!DOCTYPE svg PUBLIC "-//W3C//DTD SVG 20010904//EN"
 "http://www.w3.org/TR/2001/REC-SVG-20010904/DTD/svg10.dtd">
<svg version="1.0" xmlns="http://www.w3.org/2000/svg"
 width="728.000000pt" height="728.000000pt" viewBox="0 0 728.000000 728.000000"
 preserveAspectRatio="xMidYMid meet">

<g transform="translate(0.000000,728.000000) scale(0.100000,-0.100000)"
fill="#000000" stroke="none">
<path d="M2497 6267 c-133 -304 -202 -602 -214 -918 -26 -716 318 -1291 1012
-1694 540 -313 856 -581 1130 -958 207 -284 354 -663 372 -956 5 -75 8 -90 16
-70 14 35 13 508 -2 609 -83 572 -344 1081 -867 1685 -76 88 -264 286 -419
441 -354 355 -445 454 -562 614 -181 248 -290 447 -367 671 -61 177 -79 283
-80 461 -1 87 -1 158 -1 158 0 0 -8 -19 -18 -43z"/>
<path d="M4395 6053 c-129 -88 -241 -249 -305 -442 -197 -588 -57 -1416 370
-2187 201 -362 294 -586 374 -899 72 -280 96 -559 71 -826 -20 -219 -53 -368
-116 -527 -41 -102 -30 -102 14 0 113 264 165 556 154 873 -14 395 -118 775
-324 1183 -57 111 -149 293 -206 405 -332 652 -450 1325 -332 1886 39 187 152
394 267 492 35 29 67 56 73 61 20 17 -2 7 -40 -19z"/>
<path d="M4468 5990 c-172 -153 -296 -388 -345 -650 -28 -152 -23 -452 11
-645 53 -298 159 -649 267 -883 16 -35 29 -66 29 -69 0 -9 133 -283 136 -280
2 2 -8 39 -23 82 -20 62 -27 108 -30 205 -6 147 2 204 89 655 96 491 92 532
-95 950 -64 141 -81 243 -66 390 9 84 46 204 81 263 28 45 11 40 -54 -18z"/>
<path d="M4527 5923 c-3 -5 -2 -15 3 -22 10 -17 43 -6 38 12 -6 15 -34 22 -41
10z"/>
<path d="M4537 5764 c-12 -12 -8 -42 6 -47 21 -8 39 8 35 29 -3 19 -29 30 -41
18z"/>
<path d="M4572 5578 c-18 -18 -14 -46 7 -58 25 -13 48 -4 56 21 12 38 -35 65
-63 37z"/>
<path d="M4635 5385 c-30 -29 -32 -68 -5 -95 11 -11 31 -20 45 -20 31 0 75 41
75 70 0 27 -43 70 -70 70 -11 0 -32 -11 -45 -25z"/>
<path d="M4774 5209 c-27 -14 -54 -60 -54 -93 0 -41 48 -86 97 -93 37 -5 45
-2 73 25 82 82 -11 211 -116 161z"/>
<path d="M877 5192 c-36 -40 -14 -152 59 -292 177 -342 620 -710 1174 -978
290 -140 572 -250 864 -337 99 -30 89 -21 -49 40 -299 133 -708 358 -976 536
-425 284 -715 571 -854 849 -55 110 -140 200 -188 200 -8 0 -21 -8 -30 -18z"/>
<path d="M4968 4979 c-46 -24 -68 -64 -68 -125 0 -85 60 -144 147 -144 55 0
101 32 125 87 58 131 -76 250 -204 182z"/>
<path d="M1227 4905 c10 -13 22 -25 27 -25 5 0 -1 11 -14 25 -30 32 -36 32
-13 0z"/>
<path d="M1260 4868 c0 -24 190 -227 315 -337 263 -231 494 -381 1055 -681
438 -234 498 -268 710 -399 720 -442 1151 -953 1309 -1551 41 -156 52 -251 53
-430 1 -119 -4 -207 -15 -275 -9 -54 -15 -101 -13 -103 7 -6 36 133 47 223 87
704 -259 1389 -976 1930 -270 203 -490 333 -1080 640 -367 190 -468 246 -626
343 -309 189 -527 364 -717 576 -34 38 -62 67 -62 64z"/>
<path d="M5225 4613 c-31 -6 -116 -74 -142 -112 -49 -72 -55 -188 -15 -267 27
-52 99 -118 148 -135 21 -7 66 -13 99 -13 108 1 195 59 243 163 33 71 28 167
-12 235 -30 52 -96 108 -145 125 -32 10 -132 13 -176 4z"/>
<path d="M1065 4499 c-21 -33 48 -144 154 -248 280 -278 737 -509 1256 -637
135 -33 477 -95 519 -93 12 0 -42 18 -119 39 -542 150 -1069 416 -1443 729
-141 118 -220 178 -264 201 -40 22 -93 26 -103 9z"/>
<path d="M785 4242 c-116 -40 -200 -117 -325 -297 -78 -112 -143 -173 -232
-218 -51 -25 -73 -30 -139 -31 -44 -1 -79 -3 -78 -6 0 -3 30 -27 67 -55 222
-165 418 -273 591 -324 84 -25 121 -31 200 -31 53 0 119 6 146 14 65 17 166
69 285 146 182 118 389 198 603 236 51 8 94 18 97 21 10 11 -356 -7 -451 -21
-52 -9 -183 -34 -290 -56 -293 -62 -524 -87 -664 -71 l-70 7 80 8 c148 13 279
36 410 71 373 100 398 106 533 114 122 8 239 3 337 -14 33 -5 26 0 -38 29
-155 69 -259 134 -557 348 -184 131 -366 178 -505 130z"/>
<path d="M4880 4223 c0 -51 91 -209 194 -338 48 -60 156 -229 208 -325 89
-165 173 -400 211 -590 60 -298 43 -688 -42 -960 -16 -49 -25 -87 -21 -85 15
9 108 257 139 370 54 194 72 432 50 646 -44 433 -257 896 -546 1187 -116 117
-193 155 -193 95z"/>
<path d="M5430 3815 c0 -6 16 -37 36 -70 190 -313 281 -710 245 -1065 -25
-246 -96 -480 -217 -722 -24 -49 -41 -88 -37 -88 5 0 42 27 83 61 113 91 184
137 289 190 370 182 737 172 1084 -29 48 -28 87 -48 87 -46 0 2 -40 30 -88 62
-172 113 -392 182 -581 182 -50 0 -91 2 -91 5 0 3 9 14 19 24 49 49 57 204 21
431 -38 247 -28 365 41 460 l30 41 -30 -15 c-16 -9 -45 -34 -63 -57 -108 -135
-137 -156 -261 -196 -96 -30 -148 -65 -192 -128 l-33 -46 -7 73 c-27 286 -98
528 -222 758 -51 95 -113 190 -113 175z"/>
<path d="M4946 3765 c-7 -20 33 -120 76 -188 160 -258 229 -407 282 -611 94
-361 75 -820 -49 -1188 -18 -54 -30 -98 -26 -98 9 0 66 115 106 216 171 421
178 853 19 1292 -82 229 -241 486 -348 564 -45 32 -52 34 -60 13z"/>
<path d="M1840 3585 c-122 -20 -263 -68 -352 -120 -140 -82 -238 -203 -238
-293 0 -104 110 -94 250 22 238 197 461 279 820 301 132 9 367 -9 530 -39 69
-13 126 -22 128 -21 12 11 -350 107 -513 137 -144 26 -499 34 -625 13z"/>
<path d="M4980 3383 c0 -41 11 -88 36 -158 153 -432 190 -617 187 -955 -2
-262 -31 -441 -118 -715 -3 -11 14 19 39 67 54 104 126 312 157 458 20 93 23
134 23 355 1 260 -6 320 -54 500 -54 201 -133 381 -203 461 -53 61 -67 58 -67
-13z"/>
<path d="M2265 3403 c-170 -14 -352 -61 -470 -121 -243 -122 -377 -315 -379
-547 0 -73 4 -99 22 -140 69 -150 171 -155 264 -13 20 29 52 91 72 137 53 123
120 226 205 314 89 92 138 130 241 184 177 94 337 132 595 142 l180 6 -95 13
c-212 28 -476 39 -635 25z"/>
<path d="M2655 3289 c-158 -21 -350 -94 -486 -184 -194 -130 -330 -314 -373
-509 -12 -52 -7 -210 9 -271 22 -84 84 -208 143 -285 351 -464 1028 -636 1395
-356 48 36 111 102 135 140 8 12 -8 -3 -34 -32 -128 -144 -312 -222 -522 -222
-148 0 -297 38 -468 119 -292 139 -504 362 -584 616 -30 95 -31 233 -2 330 78
258 347 479 682 563 92 22 127 26 275 26 141 1 189 -3 280 -22 282 -60 591
-222 856 -449 445 -383 684 -911 690 -1527 1 -114 2 -117 11 -61 5 33 7 139 4
235 -12 437 -152 822 -420 1155 -127 158 -356 359 -537 472 -177 111 -410 207
-589 244 -111 23 -359 33 -465 18z"/>
<path d="M4830 3220 c-21 -51 -14 -89 101 -525 119 -447 124 -947 14 -1293
-13 -42 -23 -78 -21 -80 2 -1 24 46 49 105 137 325 198 672 177 1008 -16 258
-68 476 -156 652 -75 153 -136 201 -164 133z"/>
<path d="M2755 3153 c-156 -18 -320 -61 -410 -105 -149 -75 -293 -227 -345
-364 -27 -72 -40 -210 -29 -291 31 -220 171 -429 382 -572 126 -86 333 -160
487 -175 l65 -6 -100 56 c-226 127 -354 250 -371 352 -9 59 21 115 113 207
111 112 117 130 118 390 0 194 1 202 26 256 55 117 147 183 312 223 l92 23
-100 6 c-101 7 -185 7 -240 0z"/>
<path d="M3443 2867 c-68 -65 -131 -173 -154 -267 -25 -100 -16 -247 24 -400
42 -163 51 -210 49 -273 -3 -64 -22 -99 -100 -180 -36 -37 -63 -69 -60 -72 3
-3 37 11 76 31 117 58 208 154 294 309 34 61 36 37 4 -48 -44 -118 -132 -229
-241 -308 -54 -39 -49 -43 56 -54 85 -9 208 9 268 39 143 73 247 294 221 471
-18 125 -55 203 -185 395 -111 165 -172 285 -183 360 l-8 55 -61 -58z"/>
<path d="M3760 2786 c0 -2 25 -38 55 -78 61 -80 143 -234 168 -313 42 -133 45
-277 7 -397 -10 -34 -18 -63 -17 -63 1 -1 22 -10 47 -20 238 -100 434 -377
518 -730 l19 -80 8 69 c12 106 0 338 -23 446 -83 387 -302 750 -630 1044 -89
79 -152 130 -152 122z"/>
<path d="M6302 2150 c-106 -11 -309 -70 -432 -125 -110 -50 -113 -52 -243
-129 -103 -61 -126 -86 -37 -41 278 141 621 190 875 126 86 -22 216 -83 292
-137 71 -50 178 -160 245 -249 118 -159 137 -181 177 -209 149 -103 128 151
-32 389 -54 80 -138 166 -206 212 -31 21 -61 43 -68 49 -20 19 -159 74 -237
94 -90 23 -226 31 -334 20z"/>
<path d="M7020 2026 c0 -2 8 -10 18 -17 15 -13 16 -12 3 4 -13 16 -21 21 -21
13z"/>
<path d="M6035 1905 c-180 -32 -375 -105 -553 -205 -102 -59 -163 -100 -94
-66 68 35 220 88 322 114 94 23 124 26 290 26 148 1 199 -3 255 -17 72 -19
190 -64 259 -99 49 -25 168 -113 226 -167 106 -99 208 -145 239 -107 35 42
-20 174 -114 274 -157 169 -389 263 -645 261 -63 0 -146 -7 -185 -14z"/>
<path d="M5837 1675 c-119 -20 -288 -80 -432 -154 -130 -67 -299 -170 -291
-179 3 -2 38 14 78 36 98 54 229 103 368 138 108 27 127 29 310 28 180 0 201
-2 275 -26 193 -62 324 -137 475 -273 106 -95 211 -156 238 -138 28 17 27 79
-3 138 -83 162 -294 331 -500 399 -138 45 -357 58 -518 31z"/>
<path d="M5755 1466 c-212 -27 -416 -108 -664 -261 -50 -31 -91 -58 -91 -60 0
-3 44 18 98 45 170 86 410 138 572 125 98 -9 246 -45 345 -85 89 -35 104 -43
263 -148 174 -115 268 -141 311 -86 26 33 26 46 -2 115 -47 112 -153 210 -311
285 -151 71 -328 95 -521 70z"/>
</g>
</svg>
