<?xml version="1.0" standalone="no"?>
<!DOCTYPE svg PUBLIC "-//W3C//DTD SVG 20010904//EN"
 "http://www.w3.org/TR/2001/REC-SVG-20010904/DTD/svg10.dtd">
<svg version="1.0" xmlns="http://www.w3.org/2000/svg"
 width="258.000000pt" height="195.000000pt" viewBox="0 0 258.000000 195.000000"
 preserveAspectRatio="xMidYMid meet">

<g transform="translate(0.000000,195.000000) scale(0.100000,-0.100000)"
fill="#000000" stroke="none">
<path d="M1836 1855 c-113 -50 -164 -94 -195 -166 -27 -63 -29 -159 -5 -231
l18 -53 13 80 c15 96 66 205 119 255 l38 35 -37 -51 c-48 -67 -84 -148 -92
-210 -4 -27 -9 -57 -12 -68 -3 -12 11 -2 39 25 24 24 59 57 77 74 44 38 65 87
91 210 12 55 28 110 36 123 8 12 13 22 12 21 -2 0 -48 -20 -102 -44z"/>
<path d="M1926 1632 c-12 -26 -51 -72 -107 -122 -48 -44 -97 -95 -108 -113
-10 -17 -27 -70 -35 -117 -9 -46 -23 -95 -32 -108 l-16 -24 32 18 c54 32 145
137 186 217 21 42 40 74 42 73 1 -2 -8 -33 -22 -70 -39 -104 -98 -178 -191
-241 l-40 -27 40 6 c58 10 165 62 203 99 61 58 76 99 80 222 1 61 -1 137 -5
170 l-8 59 -19 -42z"/>
<path d="M1470 1552 c-46 -82 -55 -105 -58 -158 -7 -104 33 -189 122 -260 75
-60 80 -61 47 -7 -32 52 -61 147 -61 198 1 44 16 12 24 -50 3 -27 18 -75 33
-105 l28 -55 9 65 c5 36 9 101 10 145 1 74 -2 87 -41 173 -24 50 -43 100 -43
110 -1 48 -19 34 -70 -56z"/>
<path d="M604 1326 c-14 -46 -15 -56 -3 -81 8 -15 25 -35 39 -44 l25 -16 -23
32 c-12 17 -22 44 -22 60 1 27 2 26 21 -14 13 -25 33 -47 52 -56 37 -18 43
-16 28 11 -6 12 -11 33 -11 49 0 21 -12 40 -45 70 l-44 42 -17 -53z"/>
<path d="M815 1250 c-21 -40 -19 -83 5 -105 11 -10 20 -13 20 -7 0 6 -4 14
-10 17 -5 3 -10 20 -10 36 0 18 4 28 10 24 6 -3 10 -15 10 -26 0 -20 41 -69
57 -69 19 0 -3 97 -29 128 -15 18 -29 32 -32 32 -3 0 -12 -13 -21 -30z"/>
<path d="M250 1239 c0 -3 7 -26 16 -52 22 -66 72 -107 129 -107 25 0 45 5 45
10 0 6 -13 10 -29 10 -29 0 -91 42 -91 61 0 5 18 0 40 -11 46 -23 104 -25 140
-5 19 11 21 14 7 15 -9 0 -37 18 -60 39 -41 38 -46 39 -120 43 -42 1 -77 0
-77 -3z"/>
<path d="M1950 1186 c0 -3 18 -10 40 -16 50 -13 69 -46 52 -85 -13 -28 -32
-33 -32 -9 0 10 -7 14 -22 12 -17 -2 -23 -10 -23 -28 0 -21 5 -26 31 -28 42
-4 66 25 62 74 -2 26 -10 42 -28 55 -24 17 -80 34 -80 25z"/>
<path d="M1835 1149 c-89 -45 -130 -90 -184 -204 -38 -79 -62 -113 -111 -162
-35 -35 -65 -61 -67 -60 -2 2 11 29 28 61 62 114 47 238 -37 302 -72 56 -190
29 -229 -53 -19 -40 -19 -106 0 -143 22 -42 26 -37 8 9 -14 37 -14 42 3 77 24
48 60 74 111 81 83 11 137 -52 137 -162 0 -109 -77 -220 -216 -311 -295 -194
-644 -156 -995 108 -51 38 -93 71 -93 73 0 2 28 -9 63 -24 241 -109 491 -66
579 101 33 62 33 178 0 231 -39 61 -85 90 -153 95 -71 5 -109 -8 -149 -54 -65
-74 -63 -171 4 -242 39 -41 47 -45 97 -48 51 -3 52 -3 12 5 -72 13 -123 76
-123 152 0 89 79 156 173 146 60 -5 95 -30 124 -87 43 -83 25 -169 -52 -246
-77 -77 -186 -107 -312 -84 -80 15 -209 72 -275 123 l-46 36 -7 -41 c-4 -22
-3 -43 1 -47 119 -99 253 -188 367 -241 147 -69 221 -88 382 -100 61 -4 135
-15 165 -24 30 -9 64 -15 75 -13 12 2 5 6 -20 11 -22 4 -53 12 -69 19 -28 10
-26 11 50 32 122 32 201 76 344 189 139 110 268 152 372 122 62 -18 118 -70
118 -109 0 -54 -65 -90 -89 -49 -14 23 -14 6 -1 -19 17 -32 73 -25 104 12 28
33 32 53 15 96 -39 103 -176 138 -323 82 -28 -10 -51 -17 -53 -15 -2 2 12 15
31 30 45 34 86 94 116 171 32 81 118 168 186 189 33 10 41 15 24 15 -14 0 -52
-13 -85 -30z"/>
<path d="M1620 1027 c0 -31 -16 -93 -35 -141 -6 -13 -5 -17 3 -12 14 8 52 128
52 162 0 13 -4 24 -10 24 -5 0 -10 -15 -10 -33z"/>
<path d="M1315 1010 c-16 -7 -13 -9 16 -9 22 -1 43 -8 53 -20 16 -18 16 -18
-22 -8 -42 11 -102 -4 -102 -26 0 -6 3 -8 6 -4 3 3 25 -5 49 -17 38 -21 48
-22 93 -13 l51 11 -14 27 c-30 57 -81 80 -130 59z"/>
<path d="M1958 784 c-32 -17 -33 -20 -13 -54 32 -56 13 -127 -41 -156 l-34
-18 28 -29 c44 -47 99 -70 180 -75 39 -2 72 -1 72 4 0 4 -12 20 -26 35 l-25
27 63 -1 c81 0 139 24 183 76 41 48 43 57 11 57 -13 0 -53 13 -88 30 -34 16
-72 30 -82 30 -17 0 -18 2 -4 18 8 9 18 25 22 36 5 15 2 17 -17 12 -13 -3 -50
1 -81 9 -71 19 -113 18 -148 -1z"/>
<path d="M920 708 c-33 -72 -22 -134 30 -175 26 -21 32 -14 11 13 -15 19 -21
40 -20 73 l0 46 29 -61 c28 -62 60 -94 93 -94 14 0 16 4 7 19 -5 11 -10 41
-10 67 0 44 -4 50 -56 100 -31 30 -58 54 -60 54 -3 0 -14 -19 -24 -42z"/>
<path d="M1400 473 c-14 -2 -68 -15 -120 -28 -52 -13 -106 -26 -120 -28 -22
-4 -22 -4 5 -6 17 0 71 10 120 24 153 42 226 34 266 -32 27 -43 29 -124 6
-169 -23 -45 -62 -66 -127 -69 -31 -1 -67 -8 -79 -15 -12 -6 -30 -9 -39 -5
-16 6 -16 5 -1 -11 10 -9 37 -18 62 -21 153 -18 264 140 195 277 -32 62 -99
95 -168 83z"/>
<path d="M862 353 c6 -121 53 -162 196 -170 80 -5 85 -4 66 10 -11 9 -29 35
-39 59 -10 24 -28 56 -38 72 -19 27 -124 102 -133 93 -7 -7 23 -70 56 -116
l32 -44 -32 23 c-18 13 -50 51 -72 84 l-40 61 4 -72z"/>
</g>
</svg>
